<svg xmlns="http://www.w3.org/2000/svg" xmlns:xlink="http://www.w3.org/1999/xlink" width="1080" zoomAndPan="magnify" viewBox="0 0 810 809.999993" height="1080" preserveAspectRatio="xMidYMid meet" version="1.0"><defs><clipPath id="ce2874af41"><path d="M 83 84 L 727.453125 84 L 727.453125 727.535156 L 83 727.535156 Z M 83 84 " clip-rule="nonzero"/></clipPath><clipPath id="6acf11510e"><path d="M 552 584 L 731 584 L 731 763 L 552 763 Z M 552 584 " clip-rule="nonzero"/></clipPath><clipPath id="5d0e408fc0"><path d="M 549.359375 755.621094 L 723.597656 581.378906 L 733.746094 591.527344 L 559.507812 765.765625 Z M 549.359375 755.621094 " clip-rule="nonzero"/></clipPath><clipPath id="6d21ef3015"><path d="M 554.433594 750.546875 L 718.511719 586.46875 C 721.316406 583.664062 725.859375 583.664062 728.660156 586.46875 C 731.460938 589.269531 731.460938 593.8125 728.660156 596.613281 L 564.578125 760.695312 C 561.777344 763.496094 557.234375 763.496094 554.433594 760.695312 C 551.628906 757.890625 551.628906 753.347656 554.433594 750.546875 Z M 554.433594 750.546875 " clip-rule="nonzero"/></clipPath><clipPath id="6895b61d6d"><path d="M 609 608 L 752 608 L 752 751 L 609 751 Z M 609 608 " clip-rule="nonzero"/></clipPath><clipPath id="a64a834856"><path d="M 606.820312 743.632812 L 744.714844 605.738281 L 754.863281 615.882812 L 616.96875 753.777344 Z M 606.820312 743.632812 " clip-rule="nonzero"/></clipPath><clipPath id="c6bb8a776e"><path d="M 611.894531 738.558594 L 739.632812 610.820312 C 742.4375 608.015625 746.980469 608.015625 749.78125 610.820312 C 752.582031 613.621094 752.582031 618.164062 749.78125 620.964844 L 622.042969 748.703125 C 619.238281 751.507812 614.695312 751.507812 611.894531 748.703125 C 609.09375 745.902344 609.09375 741.359375 611.894531 738.558594 Z M 611.894531 738.558594 " clip-rule="nonzero"/></clipPath><clipPath id="1b3f90d27a"><path d="M 660 640 L 772 640 L 772 751 L 660 751 Z M 660 640 " clip-rule="nonzero"/></clipPath><clipPath id="bb495847cd"><path d="M 657.800781 743.632812 L 763.867188 637.566406 L 774.015625 647.710938 L 667.949219 753.777344 Z M 657.800781 743.632812 " clip-rule="nonzero"/></clipPath><clipPath id="651d91d3b4"><path d="M 662.875 738.558594 L 758.792969 642.640625 C 761.597656 639.835938 766.140625 639.835938 768.941406 642.640625 C 771.742188 645.441406 771.742188 649.984375 768.941406 652.785156 L 673.023438 748.703125 C 670.21875 751.507812 665.675781 751.507812 662.875 748.703125 C 660.074219 745.902344 660.074219 741.359375 662.875 738.558594 Z M 662.875 738.558594 " clip-rule="nonzero"/></clipPath></defs><rect x="-81" width="972" fill="#ffffff" y="-80.999999" height="971.999992" fill-opacity="1"/><rect x="-81" width="972" fill="#f5f5f7" y="-80.999999" height="971.999992" fill-opacity="1"/><path fill="#ffb38e" d="M 711.382812 100.617188 L 711.382812 713.390625 L 98.609375 713.390625 Z M 711.382812 100.617188 " fill-opacity="1" fill-rule="nonzero"/><g clip-path="url(#ce2874af41)"><path fill="#ffb38e" d="M 98.609375 727.453125 L 711.382812 727.453125 C 721.425781 727.453125 727.453125 721.425781 727.453125 713.390625 L 727.453125 100.617188 C 727.453125 94.589844 723.433594 88.5625 717.40625 86.554688 C 713.390625 82.535156 705.355469 84.542969 701.335938 88.5625 L 88.5625 701.335938 C 84.542969 705.355469 82.535156 711.382812 84.542969 717.410156 C 88.5625 723.433594 92.582031 727.453125 98.609375 727.453125 Z M 697.316406 697.316406 L 136.78125 697.316406 L 697.316406 136.78125 Z M 697.316406 697.316406 " fill-opacity="1" fill-rule="nonzero"/></g><g clip-path="url(#6acf11510e)"><g clip-path="url(#5d0e408fc0)"><g clip-path="url(#6d21ef3015)"><path fill="#8edaff" d="M 549.359375 755.621094 L 723.597656 581.378906 L 733.746094 591.527344 L 559.507812 765.765625 Z M 549.359375 755.621094 " fill-opacity="1" fill-rule="nonzero"/></g></g></g><g clip-path="url(#6895b61d6d)"><g clip-path="url(#a64a834856)"><g clip-path="url(#c6bb8a776e)"><path fill="#8edaff" d="M 606.820312 743.632812 L 744.714844 605.738281 L 754.863281 615.882812 L 616.96875 753.777344 Z M 606.820312 743.632812 " fill-opacity="1" fill-rule="nonzero"/></g></g></g><g clip-path="url(#1b3f90d27a)"><g clip-path="url(#bb495847cd)"><g clip-path="url(#651d91d3b4)"><path fill="#8edaff" d="M 657.800781 743.632812 L 763.867188 637.566406 L 774.015625 647.710938 L 667.949219 753.777344 Z M 657.800781 743.632812 " fill-opacity="1" fill-rule="nonzero"/></g></g></g></svg>